<?xml version="1.0" encoding="UTF-8"?>
<svg version="1.1" xmlns="http://www.w3.org/2000/svg" width="577" height="164">
<path d="M0 0 C2.62701971 2.11303759 4.42751334 3.85502669 5.9375 6.875 C6.03920439 10.33294942 5.31323041 12.80256942 4 16 C0.77939854 18.85462402 -1.06995612 19.93110786 -5.375 20.25 C-6.24125 20.1675 -7.1075 20.085 -8 20 C-8 20.66 -8 21.32 -8 22 C-7.34 22 -6.68 22 -6 22 C-1.27555111 30.26778555 0.24495071 37.5086785 -1 47 C-2.54819771 52.08468996 -5.12127694 55.39832859 -9 59 C-9 59.66 -9 60.32 -9 61 C-8.236875 61.433125 -7.47375 61.86625 -6.6875 62.3125 C-3.44038002 64.35138929 -2.4778577 65.45314151 -1 69 C0.85204839 77.94681836 -0.6190681 84.2381362 -4.625 92.25 C-8.54144213 96.78482773 -14.0442847 99.97603491 -20 101 C-30.57846873 101.67077608 -40.83156484 102.31257783 -49.30859375 95.01171875 C-56.01674749 88.08833013 -57.0914606 82.53476802 -57 73 C-54.70890403 72.91924335 -52.41700733 72.86092269 -50.125 72.8125 C-48.21074219 72.76029297 -48.21074219 72.76029297 -46.2578125 72.70703125 C-45.18273437 72.80371094 -44.10765625 72.90039062 -43 73 C-40.99442596 76.00836106 -40.07140986 78.57148844 -39 82 C-38.67 82.99 -38.34 83.98 -38 85 C-31.76212389 86.55946903 -24.79132263 87.0976842 -19 84 C-16.51009311 80.0317109 -15.90192616 77.85464349 -16.4375 73.1875 C-17.67370482 69.79484626 -17.67370482 69.79484626 -20.703125 68.82421875 C-24.00125457 67.99968636 -26.9211833 67.73266085 -30.3125 67.625 C-39.6680529 66.99703911 -46.50394835 63.77925826 -53 57 C-57.36171134 51.2846541 -58.60810274 44.05399176 -58 37 C-56.20714807 28.79475797 -53.72648216 22.57235692 -46.5625 17.75 C-38.25484299 13.10064851 -29.30209806 12.04393632 -20.1015625 14.3515625 C-17.66743943 15.10261162 -15.30993056 15.92203241 -13 17 C-13.495 16.2265625 -13.495 16.2265625 -14 15.4375 C-15.3999931 12.02501682 -15.4422401 9.66427509 -15 6 C-11.24204866 -0.47523924 -7.13674183 -1.72266182 0 0 Z M-40.875 32.75 C-43.13525717 37.27051435 -43.30039775 40.81843552 -42.0625 45.6875 C-39.38107056 49.99403819 -36.89633353 51.73882318 -32 53 C-26.67958577 53.39620106 -23.15669161 52.9206321 -18.9375 49.5625 C-15.84751103 45.4757404 -15.6568177 43.14773456 -16 38 C-17.47113767 34.35718292 -18.94947509 31.49396263 -22 29 C-29.0765488 27.04528897 -35.37813276 27.61959057 -40.875 32.75 Z " fill="#FDFDFC" transform="translate(263,44)"/>
<path d="M0 0 C1.59274863 1.93405191 2.75444622 3.80782535 4 6 C4.99 5.67 5.98 5.34 7 5 C7.2475 4.236875 7.495 3.47375 7.75 2.6875 C9.96361158 -2.07176489 14.63095396 -3.44711602 19.25 -5.3125 C28.40521149 -6.99095544 36.26561963 -5.1142189 44 0 C50.08067886 5.28754684 52.4902379 13.17434115 53.18359375 21.09814453 C53.65795414 31.72144555 52.7701215 42.41082938 52 53 C47.05 53 42.1 53 37 53 C36.97421875 50.62683594 36.9484375 48.25367188 36.921875 45.80859375 C36.88338198 43.49166371 36.83824551 41.17495078 36.79248047 38.8581543 C36.76438197 37.25702406 36.74311241 35.65575798 36.72900391 34.05444336 C36.7074183 31.74262504 36.66069442 29.43242086 36.609375 27.12109375 C36.60814636 26.41351425 36.60691772 25.70593475 36.60565186 24.97691345 C36.44715662 19.50975885 35.03373729 16.40142285 32 12 C27.5275571 9.3997425 23.8046272 9.97579039 18.98828125 11.23046875 C16.32422201 12.26154865 15.23959576 13.44333374 14 16 C12.79838489 19.60484534 12.76982864 22.97289857 12.68359375 26.73046875 C12.66281265 27.48088943 12.64203156 28.23131012 12.62062073 29.00447083 C12.55530074 31.39872184 12.49632208 33.79308139 12.4375 36.1875 C12.39429807 37.81186013 12.35068324 39.43620933 12.30664062 41.06054688 C12.1988611 45.04025502 12.09965785 49.02004701 12 53 C7.05 53 2.1 53 -3 53 C-3.03738281 50.61523438 -3.07476562 48.23046875 -3.11328125 45.7734375 C-3.15956462 43.44994215 -3.21077329 41.12660356 -3.26245117 38.80322266 C-3.29559363 37.1952476 -3.32365854 35.58715919 -3.34643555 33.97900391 C-3.38017967 31.65999295 -3.43250194 29.34201069 -3.48828125 27.0234375 C-3.49467117 26.31069672 -3.5010611 25.59795593 -3.50764465 24.86361694 C-3.64306154 20.20983697 -4.49666328 16.93334354 -7 13 C-10.74036286 10.72644611 -13.84787944 9.72699602 -18.1875 9.9375 C-22.17856954 10.66550841 -22.17856954 10.66550841 -24.4375 13.875 C-26.77588384 18.55176767 -27.19499529 22.38030406 -27.31640625 27.51171875 C-27.33718735 28.23994339 -27.35796844 28.96816803 -27.37937927 29.71846008 C-27.44468746 32.04137875 -27.50367237 34.36440906 -27.5625 36.6875 C-27.60570305 38.26368335 -27.64931792 39.83985548 -27.69335938 41.41601562 C-27.80112368 45.27723104 -27.90033556 49.138533 -28 53 C-32.95 53 -37.9 53 -43 53 C-43.09952633 47.61064933 -43.17177659 42.2218439 -43.21972656 36.83178711 C-43.23973374 35.00161407 -43.26694851 33.17150408 -43.30175781 31.34155273 C-43.35076003 28.69759488 -43.37307761 26.05448835 -43.390625 23.41015625 C-43.41127014 22.60353043 -43.43191528 21.7969046 -43.45318604 20.96583557 C-43.4560323 13.61634737 -41.09083015 7.46514247 -36.625 1.625 C-26.8237039 -8.1762961 -10.8495843 -7.97112316 0 0 Z " fill="#FEFDFD" transform="translate(147,63)"/>
<path d="M0 0 C1.93166016 0.01740234 1.93166016 0.01740234 3.90234375 0.03515625 C5.19269531 0.04417969 6.48304688 0.05320312 7.8125 0.0625 C8.81152344 0.07410156 9.81054688 0.08570312 10.83984375 0.09765625 C11.93813144 3.63953903 11.95429386 6.91863245 11.9375 10.61328125 C11.93427734 11.86367188 11.93105469 13.1140625 11.92773438 14.40234375 C11.91935547 15.70429687 11.91097656 17.00625 11.90234375 18.34765625 C11.89783203 19.66507813 11.89332031 20.9825 11.88867188 22.33984375 C11.87688691 25.59249366 11.86043386 28.84505209 11.83984375 32.09765625 C14.05066226 32.20306551 14.05066226 32.20306551 16.83984375 31.09765625 C16.83984375 30.43765625 16.83984375 29.77765625 16.83984375 29.09765625 C24.82729449 26.08961629 31.37036821 25.09351266 39.515625 28.078125 C45.48869529 30.81246384 49.84233508 33.782327 52.69091797 39.9362793 C55.81583854 48.80017925 55.16764628 57.96092435 55.02734375 67.22265625 C55.01226928 68.95962381 54.99858577 70.69660403 54.98632812 72.43359375 C54.95354199 76.65526477 54.90191289 80.87631838 54.83984375 85.09765625 C49.88984375 85.42765625 44.93984375 85.75765625 39.83984375 86.09765625 C39.00048252 81.90085012 38.75801991 78.7270014 38.84765625 74.51171875 C38.86441406 73.25101562 38.88117188 71.9903125 38.8984375 70.69140625 C38.94258004 68.05324059 38.99461762 65.41519481 39.0546875 62.77734375 C39.25348036 53.49235405 39.25348036 53.49235405 35.83984375 45.09765625 C30.95572694 41.90802895 26.87994331 41.63587881 21.14453125 42.47265625 C17.44032 43.47718811 15.95483368 44.92517136 13.83984375 48.09765625 C11.57546256 55.79813028 11.63680114 63.11653953 11.77734375 71.09765625 C11.81158463 73.53509972 11.84176847 75.97260481 11.8671875 78.41015625 C11.89413696 80.01310547 11.89413696 80.01310547 11.92163086 81.6484375 C11.83984375 84.09765625 11.83984375 84.09765625 10.83984375 85.09765625 C8.4867082 85.17037366 6.13150707 85.18136493 3.77734375 85.16015625 C1.84181641 85.14662109 1.84181641 85.14662109 -0.1328125 85.1328125 C-1.13183594 85.12121094 -2.13085938 85.10960938 -3.16015625 85.09765625 C-4.70542867 82.00711142 -4.29860702 78.7503539 -4.28955078 75.35913086 C-4.2913031 74.56065231 -4.29305542 73.76217377 -4.29486084 72.9394989 C-4.29927203 70.29297734 -4.29634421 67.64652227 -4.29296875 65 C-4.29364193 63.16679369 -4.29461208 61.33358747 -4.29586792 59.50038147 C-4.29734384 55.65608878 -4.29519346 51.8118193 -4.29052734 47.9675293 C-4.28482611 43.02852757 -4.28811222 38.08958014 -4.29409981 33.15058041 C-4.29770484 29.36490974 -4.29656717 25.57925205 -4.29397202 21.79358101 C-4.29330279 19.97182776 -4.29413101 18.15007335 -4.29645157 16.32832146 C-4.29897758 13.78777802 -4.29513844 11.24732386 -4.28955078 8.70678711 C-4.29157501 7.94676392 -4.29359924 7.18674072 -4.29568481 6.40368652 C-4.26999622 0.13195291 -4.26999622 0.13195291 0 0 Z " fill="#FEFEFD" transform="translate(472.16015625,30.90234375)"/>
<path d="M0 0 C7.82908701 5.68141917 11.35997242 11.43665002 13 21 C13.33762099 26.57179484 13.28656864 32.10912547 13.1875 37.6875 C13.17241445 39.17902283 13.15873294 40.67056055 13.14648438 42.16210938 C13.11381157 45.77505488 13.06224719 49.38742861 13 53 C7.2269193 54.70951468 3.82962472 55.38330078 -2 54 C-3.5 51.9375 -3.5 51.9375 -4 50 C-4.825 50.61875 -5.65 51.2375 -6.5 51.875 C-13.32416327 56.35535019 -20.20312532 56.55682277 -28 55 C-36.51595188 52.01941684 -42.0518502 48.10488109 -46 40 C-49.30312072 30.56251224 -49.11443221 20.81892585 -45.3359375 11.546875 C-41.712545 4.63912087 -36.65782118 -0.31837975 -29.2734375 -2.984375 C-18.77329521 -5.75799749 -9.50717394 -5.6863663 0 0 Z M-28 14 C-31.70089897 18.1753732 -33.26112315 22.42240945 -33 28 C-32.08628873 32.44726722 -30.74473233 35.29159608 -27.4375 38.4375 C-22.39807243 41.66790229 -17.90147583 41.59181467 -12 41 C-7.00057937 38.67884042 -4.91185079 36.13181002 -3 31 C-1.41202231 25.38914549 -2.41387644 22.10172641 -4.796875 17.015625 C-6.63710721 13.93263858 -7.99176633 12.36322473 -11.41796875 11.12890625 C-18.06214804 9.77008256 -22.55920738 9.63710026 -28 14 Z M-3 46 C-2 48 -2 48 -2 48 Z " fill="#FDFDFD" transform="translate(85,62)"/>
<path d="M0 0 C3.36052017 3.70294284 5.94941351 7.91998565 7.125 12.8125 C6.71875 15.5859375 6.71875 15.5859375 6.125 17.8125 C-6.3697245 19.04485639 -6.3697245 19.04485639 -9.96484375 16.1015625 C-10.93525139 14.67555233 -11.86051859 13.2176039 -12.734375 11.73046875 C-13.80459111 9.62092885 -13.80459111 9.62092885 -16.1875 8.25 C-20.87530078 7.48686964 -25.41620634 7.55705663 -29.71875 9.75390625 C-33.8117134 12.79353348 -35.12376463 15.88773479 -35.875 20.8125 C-35.85619252 25.74946395 -35.00613341 29.89858324 -31.875 33.8125 C-27.99581245 37.221483 -24.20127986 37.27045797 -19.24609375 37.09375 C-16.04401291 36.71393151 -14.26840952 35.98832683 -11.875 33.8125 C-11.49601562 32.801875 -11.11703125 31.79125 -10.7265625 30.75 C-10.11554688 29.780625 -9.50453125 28.81125 -8.875 27.8125 C-6.0453969 27.17545275 -4.01686274 26.92693282 -1.1875 26.9375 C-0.48560547 26.916875 0.21628906 26.89625 0.93945312 26.875 C2.66745468 26.82797955 4.39636406 26.81675249 6.125 26.8125 C7.73141754 31.67576405 6.14435009 35.28473848 4.125 39.8125 C-0.08283045 46.2480054 -5.57379829 49.57231078 -12.85546875 51.671875 C-22.0739614 53.51332785 -31.30552954 52.97012001 -39.6171875 48.2578125 C-45.31262414 44.05626088 -49.837201 39.10418317 -51.5546875 32.046875 C-53.17425154 20.74942825 -51.76970413 11.26310371 -45.875 1.5 C-41.15354264 -3.54404141 -33.80324474 -6.43019533 -27.25 -8.125 C-17.25737881 -8.31004854 -7.6330832 -7.01462444 0 0 Z " fill="#FDFDFD" transform="translate(454.875,65.1875)"/>
<path d="M0 0 C19.47 0 38.94 0 59 0 C59 3.63 59 7.26 59 11 C56.86051126 13.13948874 51.64470804 12.40015887 48.63476562 12.51757812 C43.46919572 12.71932594 43.46919572 12.71932594 39 15 C37.36961528 18.41623563 36.74081427 21.20523185 36.68115234 24.97387695 C36.66128265 25.93449539 36.64141296 26.89511383 36.62094116 27.88484192 C36.60361435 29.42104439 36.60361435 29.42104439 36.5859375 30.98828125 C36.56657135 32.04661667 36.5472052 33.10495209 36.5272522 34.19535828 C36.46758752 37.56765748 36.42112307 40.93999106 36.375 44.3125 C36.33680819 46.60222823 36.29775576 48.89194228 36.2578125 51.18164062 C36.16189656 56.78764491 36.07781672 62.39371645 36 68 C31.71 68 27.42 68 23 68 C21.8471923 65.6943846 21.86168264 64.35059038 21.83886719 61.78491211 C21.82925964 60.91317856 21.8196521 60.04144501 21.80975342 59.14329529 C21.80550354 58.19753128 21.80125366 57.25176727 21.796875 56.27734375 C21.79117493 55.30269669 21.78547485 54.32804962 21.77960205 53.3238678 C21.77014099 51.25506681 21.7636137 49.18625068 21.75976562 47.11743164 C21.75011362 43.97449747 21.71912296 40.83223222 21.6875 37.68945312 C21.68096449 35.67708721 21.67571617 33.66471662 21.671875 31.65234375 C21.6595282 30.72074936 21.6471814 29.78915497 21.63446045 28.82933044 C21.63746155 27.93553177 21.64046265 27.04173309 21.64355469 26.12084961 C21.63990906 25.34744736 21.63626343 24.5740451 21.63250732 23.77720642 C22.16812791 19.72942797 23.70882225 15.87353325 25 12 C17.08 12 9.16 12 1 12 C0 8 0 8 0 0 Z " fill="#FEFDFD" transform="translate(283,47)"/>
<path d="M0 0 C0.68100266 0.00141495 1.36200531 0.0028299 2.06364441 0.00428772 C4.22346522 0.00985327 6.38317964 0.02239922 8.54296875 0.03515625 C10.01367037 0.04017571 11.48437363 0.04473784 12.95507812 0.04882812 C16.54690915 0.05981137 20.13867855 0.07705203 23.73046875 0.09765625 C24.76206501 3.19244504 24.70529737 4.62397018 24.29296875 7.78515625 C24.14021484 8.99751953 24.14021484 8.99751953 23.984375 10.234375 C23.90058594 10.84925781 23.81679688 11.46414062 23.73046875 12.09765625 C22.49744019 12.12738525 22.49744019 12.12738525 21.23950195 12.15771484 C17.50700749 12.25310228 13.77506205 12.36272714 10.04296875 12.47265625 C8.74939453 12.50359375 7.45582031 12.53453125 6.12304688 12.56640625 C4.87587891 12.60507813 3.62871094 12.64375 2.34375 12.68359375 C0.62345581 12.7307251 0.62345581 12.7307251 -1.1315918 12.77880859 C-4.29310766 13.10005186 -6.49183146 13.5602474 -9.26953125 15.09765625 C-11.70202279 18.35092714 -11.65693902 21.8877858 -11.89453125 25.84765625 C-11.96929687 27.018125 -12.0440625 28.18859375 -12.12109375 29.39453125 C-12.19457031 30.73257813 -12.19457031 30.73257813 -12.26953125 32.09765625 C-11.15392822 32.09241943 -10.0383252 32.08718262 -8.88891602 32.08178711 C-4.76473792 32.0637385 -0.64056334 32.05222476 3.48364258 32.04272461 C5.27140896 32.03768407 7.0591712 32.03085171 8.84692383 32.0222168 C11.41098043 32.01013895 13.97498272 32.00442531 16.5390625 32 C17.34323105 31.99483871 18.1473996 31.98967743 18.97593689 31.98435974 C20.8944859 31.9841641 22.81292243 32.03563642 24.73046875 32.09765625 C27.56869981 34.93588731 25.73046875 40.08379139 25.73046875 44.09765625 C8.57046875 44.09765625 -8.58953125 44.09765625 -26.26953125 44.09765625 C-26.26953125 12.17366575 -26.26953125 12.17366575 -18.26953125 4.09765625 C-12.35163491 0.35368101 -6.88519533 -0.02833414 0 0 Z " fill="#FEFEFD" transform="translate(372.26953125,70.90234375)"/>
<path d="M0 0 C17.16 0 34.32 0 52 0 C52 3.63 52 7.26 52 11 C50.37245356 12.62754644 48.55861677 12.12737077 46.3125 12.12939453 C45.31476563 12.13254669 44.31703125 12.13569885 43.2890625 12.13894653 C42.20367187 12.1369223 41.11828125 12.13489807 40 12.1328125 C38.89398438 12.13376923 37.78796875 12.13472595 36.6484375 12.13571167 C34.30468692 12.13639367 31.96093447 12.13453804 29.6171875 12.13037109 C26.01558212 12.12502314 22.41410147 12.13031547 18.8125 12.13671875 C16.54166639 12.13605797 14.27083286 12.13477682 12 12.1328125 C10.91460937 12.13483673 9.82921875 12.13686096 8.7109375 12.13894653 C7.71320313 12.13579437 6.71546875 12.13264221 5.6875 12.12939453 C4.80449219 12.12859894 3.92148437 12.12780334 3.01171875 12.12698364 C1 12 1 12 0 11 C0 7.37 0 3.74 0 0 Z " fill="#FEFEFE" transform="translate(346,47)"/>
<path d="M0 0 C2.62701971 2.11303759 4.42751334 3.85502669 5.9375 6.875 C6.03920439 10.33294942 5.31323041 12.80256942 4 16 C1.41988573 18.45725169 -0.40893155 19.87761012 -4.03125 20.15625 C-7.6420905 19.88678429 -9.56379811 19.34672458 -12.4375 17.0625 C-15.29601522 13.28925991 -15.47388073 10.73880731 -15 6 C-11.26715512 -0.48563783 -7.11827999 -1.71820551 0 0 Z " fill="#39B44A" transform="translate(263,44)"/>
<path d="M0 0 C0.33 0.99 0.66 1.98 1 3 C-2.3 3 -5.6 3 -9 3 C-11.48887372 7.68493876 -10.85687773 10.9444214 -10 16 C-9.21625 16.12375 -8.4325 16.2475 -7.625 16.375 C-5 17 -5 17 -3 19 C-3 18.34 -3 17.68 -3 17 C-2.38125 16.79375 -1.7625 16.5875 -1.125 16.375 C1.23338821 15.10825515 1.23338821 15.10825515 2.3125 12.3125 C3.0915462 8.55891378 2.74743589 5.73717943 2 2 C4.50491737 4.17818901 5.7208769 5.6505228 6 9 C5.30203941 13.34286589 4.58457923 15.44325787 1.375 18.5 C-2.81374984 20.3616666 -5.67140662 20.46747622 -10 19 C-13.52877424 16.19507688 -14.85768159 14.23342623 -15.375 9.75 C-14.87855761 4.78557614 -13.52492587 3.44295085 -10 0 C-6.30581799 -1.231394 -3.7943739 -0.64432764 0 0 Z " fill="#4BA568" transform="translate(263,44)"/>
<path d="M0 0 C2.50491737 2.17818901 3.7208769 3.6505228 4 7 C3.27982804 10.73180017 2.78142149 13.21857851 0.0625 15.9375 C-2 17 -2 17 -5 17 C-5 16.34 -5 15.68 -5 15 C-4.38125 14.79375 -3.7625 14.5875 -3.125 14.375 C-0.76661179 13.10825515 -0.76661179 13.10825515 0.3125 10.3125 C1.0915462 6.55891378 0.74743589 3.73717943 0 0 Z " fill="#479161" transform="translate(265,46)"/>
<path d="M0 0 C0.33 0.66 0.66 1.32 1 2 C-0.3125 4 -0.3125 4 -2 6 C-2.99 6 -3.98 6 -5 6 C-5 6.66 -5 7.32 -5 8 C-8 7 -8 7 -10 5 C-8.906875 4.731875 -7.81375 4.46375 -6.6875 4.1875 C-3.38307337 3.12336261 -2.05039578 2.65345336 0 0 Z " fill="#43AD56" transform="translate(265,55)"/>
<path d="M0 0 C0.66 0 1.32 0 2 0 C2.66 0.66 3.32 1.32 4 2 C4.804375 2.144375 5.60875 2.28875 6.4375 2.4375 C9.2640517 3.05796257 10.19092843 3.81007125 12 6 C4.63636364 5.50909091 4.63636364 5.50909091 1.5 3 C0 1 0 1 0 0 Z " fill="#69AB83" transform="translate(249,58)"/>
<path d="M0 0 C3.125 -0.1875 3.125 -0.1875 6 0 C6.33 0.99 6.66 1.98 7 3 C4.03 3 1.06 3 -2 3 C-1.34 2.01 -0.68 1.02 0 0 Z " fill="#479D62" transform="translate(257,44)"/>
</svg>
