<svg width="577" height="397" viewBox="0 0 577 397" fill="none" xmlns="http://www.w3.org/2000/svg">
<rect x="180.75" width="215.5" height="233.552" rx="32" fill="#3AB54A"/>
<path fill-rule="evenodd" clip-rule="evenodd" d="M288.426 16.0955C289.308 15.9965 290.241 15.9696 291.225 16.0379L291.906 16.0994L292.48 16.1746C295.296 16.5964 297.294 17.7011 298.067 18.1522C299.118 18.7649 299.924 19.3927 300.416 19.7996C301.409 20.6202 302.242 21.4768 302.815 22.0926C304.016 23.3832 305.313 24.9689 306.583 26.5936C309.18 29.9161 312.477 34.4567 316.148 39.6932C323.531 50.2211 332.874 64.1984 342.033 78.3621C351.19 92.5214 360.263 107.022 367.085 118.592C370.481 124.351 373.421 129.556 375.553 133.703C376.607 135.754 377.581 137.774 378.329 139.593C378.701 140.497 379.106 141.562 379.438 142.69C379.698 143.576 380.25 145.578 380.25 148.008C380.25 151.208 379.297 154.794 376.844 157.927C374.529 160.881 371.691 162.399 369.613 163.168C365.899 164.542 362.397 164.349 360.781 164.215C357.011 163.9 352.777 162.767 349.09 161.624C341.306 159.211 331.359 155.262 321.902 151.259C312.328 147.205 302.797 142.9 295.688 139.622C292.872 138.324 290.428 137.18 288.497 136.272C286.567 137.179 284.124 138.321 281.312 139.618C274.203 142.896 264.672 147.203 255.098 151.256C245.641 155.259 235.694 159.208 227.91 161.621C224.223 162.764 219.988 163.898 216.219 164.212C214.603 164.346 211.102 164.538 207.388 163.164C205.31 162.395 202.472 160.877 200.157 157.923C197.704 154.79 196.75 151.205 196.75 148.005C196.75 145.489 197.344 143.425 197.615 142.538C197.965 141.394 198.388 140.317 198.775 139.408C199.554 137.578 200.568 135.546 201.661 133.485C203.872 129.318 206.921 124.082 210.431 118.292C217.481 106.66 226.829 92.0815 236.152 77.8924C245.488 63.6846 254.881 49.7433 262.057 39.3543C265.635 34.1742 268.715 29.7997 270.982 26.6941C272.095 25.1701 273.124 23.798 273.965 22.7508C274.347 22.2744 274.917 21.5817 275.552 20.9168C275.811 20.6447 276.499 19.9298 277.455 19.1912C277.89 18.8549 278.947 18.0658 280.456 17.3748C281.181 17.043 284.284 15.6261 288.426 16.0955ZM303.558 75.1941C303.836 86.2997 304.255 97.4445 304.604 105.828C304.679 107.617 304.75 109.278 304.816 110.785C305.881 111.28 307.029 111.816 308.25 112.379C315.203 115.585 324.422 119.747 333.598 123.632C334.278 123.919 334.956 124.202 335.63 124.484C330.033 115.305 323.491 104.936 316.842 94.6531C312.345 87.6987 307.823 80.8223 303.539 74.4197C303.545 74.6777 303.551 74.9359 303.558 75.1941ZM272.297 77.6785C268.701 83.0482 264.958 88.6832 261.224 94.367C254.474 104.639 247.789 115.004 242.033 124.203C242.488 124.012 242.945 123.822 243.402 123.629C252.578 119.744 261.798 115.581 268.751 112.375C269.863 111.862 270.914 111.372 271.896 110.915C271.917 109.523 271.94 108.004 271.963 106.38C272.073 98.5096 272.204 88.1664 272.297 77.6785Z" fill="#F6F7FC"/>
<path fill-rule="evenodd" clip-rule="evenodd" d="M288.264 48.0691C288.749 48.0025 289.266 47.9812 289.815 48.0193L290.149 48.0496L290.431 48.0867C291.812 48.2937 292.796 48.8363 293.184 49.0623C293.706 49.3673 294.112 49.6829 294.365 49.8924C294.876 50.3145 295.316 50.7635 295.633 51.1043C296.294 51.8149 297.024 52.7063 297.76 53.6473C299.258 55.5649 301.174 58.2024 303.321 61.2645C307.635 67.4159 313.101 75.5925 318.463 83.8846C323.824 92.1746 329.13 100.656 333.115 107.414C335.1 110.78 336.807 113.804 338.037 116.197C338.647 117.383 339.197 118.526 339.613 119.537C339.82 120.04 340.037 120.614 340.212 121.209C340.352 121.686 340.629 122.699 340.629 123.912C340.629 125.501 340.156 127.274 338.943 128.822C337.799 130.283 336.392 131.038 335.351 131.424C333.483 132.115 331.693 132.025 330.804 131.951C328.762 131.781 326.407 131.158 324.263 130.493C319.774 129.101 314 126.811 308.465 124.468C302.873 122.1 297.301 119.584 293.142 117.666C291.175 116.759 289.516 115.981 288.312 115.413C287.107 115.98 285.451 116.757 283.487 117.663C279.328 119.581 273.756 122.098 268.164 124.466C262.629 126.809 256.854 129.099 252.365 130.491C250.221 131.156 247.866 131.779 245.824 131.949C244.935 132.023 243.146 132.112 241.278 131.422C240.237 131.036 238.829 130.281 237.685 128.82C236.473 127.273 236 125.499 236 123.91C236 122.656 236.296 121.611 236.442 121.134C236.627 120.531 236.854 119.951 237.069 119.445C237.502 118.428 238.075 117.277 238.707 116.086C239.984 113.68 241.755 110.638 243.807 107.253C247.926 100.457 253.394 91.9285 258.854 83.618C264.321 75.2984 269.821 67.1364 274.02 61.0574C276.114 58.0251 277.912 55.4728 279.229 53.6678C279.878 52.7793 280.465 51.996 280.937 51.409C281.154 51.1386 281.457 50.7719 281.784 50.4285C281.92 50.2862 282.263 49.9301 282.735 49.5652C282.951 49.3988 283.47 49.0121 284.209 48.6736C284.573 48.5068 286.161 47.7841 288.264 48.0691Z" fill="#3AB54A"/>
<path d="M337 190.531L289.916 174.309L240 190.531" stroke="white" stroke-width="20" stroke-linecap="round" stroke-linejoin="round"/>
<path d="M316 217.552L289.734 208.418L261.63 217.552" stroke="white" stroke-width="14" stroke-linecap="round" stroke-linejoin="round"/>
<path fill-rule="evenodd" clip-rule="evenodd" d="M250.5 288.798C254.258 282.758 258.364 281.594 265.5 283.201C268.127 285.173 269.928 286.797 271.438 289.615C271.539 292.841 270.813 295.145 269.5 298.128C266.28 300.791 264.43 301.796 260.125 302.093C259.259 302.016 258.393 301.939 257.5 301.86V303.726H259.5C264.224 311.439 265.745 318.194 264.5 327.048C262.952 331.792 260.379 334.883 256.5 338.243V340.11C257.263 340.514 258.026 340.918 258.813 341.334C262.059 343.236 263.022 344.264 264.5 347.573C266.352 355.919 264.881 361.789 260.875 369.264C256.959 373.494 251.456 376.472 245.5 377.427C234.922 378.053 224.669 378.651 216.192 371.84C209.483 365.381 208.409 360.2 208.5 351.305C210.791 351.23 213.083 351.175 215.375 351.13C217.289 351.081 217.289 351.081 219.242 351.032C220.317 351.122 221.393 351.212 222.5 351.305C224.506 354.111 225.429 356.503 226.5 359.701C226.83 360.625 227.16 361.548 227.5 362.499C233.738 363.954 240.709 364.457 246.5 361.567C248.99 357.865 249.598 355.834 249.063 351.48C247.826 348.315 247.826 348.314 244.797 347.408C241.499 346.639 238.579 346.391 235.188 346.29C225.832 345.704 218.996 342.703 212.5 336.378C208.138 331.046 206.892 324.3 207.5 317.719C209.293 310.064 211.774 304.259 218.938 299.76C227.245 295.423 236.198 294.437 245.399 296.59C247.833 297.291 250.19 298.055 252.5 299.061C252.005 298.339 252.005 298.339 251.5 297.603C250.1 294.419 250.058 292.217 250.5 288.798ZM243.5 310.256C236.424 308.433 230.122 308.968 224.625 313.754C222.365 317.971 222.2 321.282 223.438 325.824C226.119 329.842 228.604 331.469 233.5 332.646C238.82 333.015 242.343 332.572 246.563 329.439C249.652 325.626 249.843 323.455 249.5 318.653C248.029 315.254 246.55 312.583 243.5 310.256Z" fill="#FDFDFC"/>
<path d="M147 302.326C148.593 304.13 149.755 305.878 151 307.924C151.99 307.616 152.98 307.308 154 306.991C154.248 306.279 154.495 305.567 154.75 304.833C156.964 300.393 161.631 299.11 166.25 297.37C175.405 295.804 183.266 297.555 191 302.326C197.081 307.259 199.49 314.617 200.184 322.009C200.658 331.92 199.77 341.892 199 351.771C194.05 351.771 189.1 351.771 184 351.771C183.974 349.557 183.949 347.343 183.922 345.062C183.883 342.901 183.838 340.739 183.793 338.578C183.764 337.084 183.743 335.59 183.729 334.096C183.707 331.94 183.661 329.784 183.609 327.628C183.608 326.968 183.607 326.308 183.606 325.628C183.447 320.527 182.034 317.627 179 313.521C174.528 311.095 170.805 311.633 165.988 312.803C163.324 313.765 162.24 314.868 161 317.253C159.798 320.616 159.77 323.758 159.684 327.264C159.663 327.964 159.642 328.664 159.621 329.385C159.555 331.619 159.496 333.852 159.438 336.086C159.394 337.602 159.351 339.117 159.307 340.632C159.199 344.345 159.1 348.058 159 351.771C154.05 351.771 149.1 351.771 144 351.771C143.963 349.546 143.925 347.321 143.887 345.029C143.84 342.862 143.789 340.694 143.738 338.527C143.704 337.026 143.676 335.526 143.654 334.026C143.62 331.862 143.568 329.7 143.512 327.537C143.505 326.872 143.499 326.207 143.492 325.522C143.357 321.18 142.503 318.124 140 314.454C136.26 312.333 133.152 311.401 128.813 311.597C124.821 312.276 124.821 312.276 122.563 315.27C120.224 319.633 119.805 323.205 119.684 327.992C119.663 328.672 119.642 329.351 119.621 330.051C119.555 332.218 119.496 334.385 119.438 336.553C119.394 338.023 119.351 339.494 119.307 340.964C119.199 344.566 119.1 348.169 119 351.771C114.05 351.771 109.1 351.771 104 351.771C103.901 346.743 103.828 341.716 103.78 336.687C103.76 334.98 103.733 333.273 103.698 331.565C103.649 329.099 103.627 326.633 103.609 324.166C103.589 323.413 103.568 322.661 103.547 321.886C103.544 315.029 105.909 309.29 110.375 303.842C120.176 294.698 136.15 294.89 147 302.326Z" fill="#FEFDFD"/>
<path d="M472.16 272.381C474.092 272.398 474.092 272.398 476.063 272.414C477.353 272.423 478.643 272.431 479.973 272.44C480.972 272.45 481.971 272.461 483 272.472C484.098 275.777 484.114 278.836 484.098 282.283C484.094 283.449 484.091 284.616 484.088 285.818C484.08 287.032 484.071 288.247 484.063 289.498C484.058 290.727 484.053 291.956 484.049 293.223C484.037 296.257 484.021 299.292 484 302.326C486.211 302.424 486.211 302.424 489 301.393C489 300.777 489 300.162 489 299.527C496.987 296.721 503.531 295.792 511.676 298.576C517.649 301.127 522.002 303.898 524.851 309.639C527.976 317.908 527.328 326.455 527.188 335.095C527.172 336.716 527.159 338.336 527.146 339.957C527.114 343.895 527.062 347.833 527 351.771C522.05 352.079 517.1 352.387 512 352.704C511.161 348.789 510.918 345.828 511.008 341.895C511.025 340.719 511.041 339.543 511.059 338.331C511.103 335.87 511.155 333.409 511.215 330.948C511.414 322.286 511.414 322.286 508 314.454C503.116 311.478 499.04 311.225 493.305 312.005C489.6 312.942 488.115 314.293 486 317.253C483.736 324.437 483.797 331.264 483.938 338.71C483.972 340.984 484.002 343.258 484.027 345.532C484.054 347.028 484.054 347.028 484.082 348.553C484 350.838 484 350.838 483 351.771C480.647 351.839 478.292 351.849 475.938 351.829C474.002 351.817 474.002 351.817 472.027 351.804C471.028 351.793 470.029 351.782 469 351.771C467.455 348.888 467.862 345.85 467.871 342.686C467.869 341.941 467.867 341.196 467.865 340.428C467.861 337.959 467.864 335.491 467.867 333.022C467.867 331.311 467.866 329.601 467.864 327.891C467.863 324.304 467.865 320.718 467.87 317.131C467.875 312.524 467.872 307.916 467.866 303.308C467.862 299.777 467.864 296.245 467.866 292.713C467.867 291.014 467.866 289.314 467.864 287.614C467.861 285.244 467.865 282.874 467.871 280.504C467.869 279.795 467.867 279.086 467.864 278.355C467.89 272.504 467.89 272.504 472.16 272.381Z" fill="#FEFEFD"/>
<path d="M85 301.393C92.829 306.693 96.3599 312.063 98 320.985C98.3376 326.183 98.2865 331.349 98.1875 336.553C98.1724 337.944 98.1587 339.336 98.1464 340.727C98.1138 344.098 98.0622 347.468 98 350.838C92.2269 352.433 88.8296 353.062 83 351.771C81.5 349.847 81.5 349.847 81 348.039C80.1749 348.617 79.3499 349.194 78.5 349.789C71.6758 353.969 64.7968 354.156 57 352.704C48.484 349.923 42.9481 346.271 39 338.71C35.6968 329.906 35.8855 320.816 39.664 312.165C43.2874 305.721 48.3421 301.096 55.7265 298.609C66.2267 296.021 75.4928 296.088 85 301.393ZM57 314.454C53.2991 318.349 51.7388 322.312 52 327.515C52.9137 331.664 54.2552 334.318 57.5625 337.252C62.6019 340.266 67.0985 340.195 73 339.643C77.9994 337.478 80.0881 335.101 82 330.314C83.5879 325.079 82.5861 322.012 80.2031 317.267C78.3628 314.391 77.0082 312.927 73.582 311.776C66.9378 310.508 62.4407 310.384 57 314.454ZM82 344.308C83 346.174 83 346.174 83 346.174L82 344.308Z" fill="#FDFDFD"/>
<path d="M454.875 304.367C458.236 307.821 460.824 311.756 462 316.32C461.594 318.907 461.594 318.907 461 320.985C448.505 322.134 448.505 322.134 444.91 319.388C443.94 318.058 443.015 316.698 442.141 315.311C441.07 313.342 441.07 313.342 438.688 312.063C434 311.352 429.459 311.417 425.156 313.467C421.063 316.302 419.751 319.189 419 323.783C419.019 328.389 419.869 332.26 423 335.911C426.879 339.092 430.674 339.137 435.629 338.973C438.831 338.618 440.607 337.941 443 335.911C443.379 334.969 443.758 334.026 444.148 333.054C444.759 332.15 445.371 331.246 446 330.314C448.83 329.72 450.858 329.488 453.688 329.498C454.389 329.478 455.091 329.459 455.814 329.439C457.542 329.395 459.271 329.385 461 329.381C462.606 333.918 461.019 337.285 459 341.509C454.792 347.513 449.301 350.614 442.02 352.573C432.801 354.291 423.57 353.784 415.258 349.388C409.562 345.468 405.038 340.848 403.32 334.264C401.701 323.725 403.105 314.874 409 305.766C413.722 301.061 421.072 298.368 427.625 296.787C437.618 296.614 447.242 297.823 454.875 304.367Z" fill="#FDFDFD"/>
<path d="M283 287.399C302.47 287.399 321.94 287.399 342 287.399C342 290.786 342 294.172 342 297.661C339.861 299.657 334.645 298.968 331.635 299.077C326.469 299.265 326.469 299.265 322 301.393C320.37 304.58 319.741 307.182 319.681 310.698C319.661 311.594 319.641 312.49 319.621 313.414C319.604 314.847 319.604 314.847 319.586 316.309C319.567 317.296 319.547 318.284 319.527 319.301C319.468 322.447 319.421 325.593 319.375 328.739C319.337 330.876 319.298 333.012 319.258 335.148C319.162 340.378 319.078 345.608 319 350.838C314.71 350.838 310.42 350.838 306 350.838C304.847 348.687 304.862 347.434 304.839 345.04C304.829 344.227 304.82 343.413 304.81 342.576C304.806 341.693 304.801 340.811 304.797 339.902C304.791 338.993 304.785 338.083 304.78 337.146C304.77 335.216 304.764 333.286 304.76 331.356C304.75 328.424 304.719 325.493 304.688 322.561C304.681 320.683 304.676 318.806 304.672 316.928C304.66 316.059 304.647 315.19 304.634 314.295C304.637 313.461 304.64 312.627 304.644 311.768C304.64 311.046 304.636 310.325 304.633 309.582C305.168 305.805 306.709 302.208 308 298.594C300.08 298.594 292.16 298.594 284 298.594C283 294.863 283 294.863 283 287.399Z" fill="#FEFDFD"/>
<path d="M372.27 309.698C372.951 309.7 373.632 309.701 374.333 309.702C376.493 309.707 378.653 309.719 380.812 309.731C382.283 309.736 383.754 309.74 385.225 309.744C388.816 309.754 392.408 309.77 396 309.789C397.032 312.677 396.975 314.012 396.562 316.961C396.41 318.092 396.41 318.092 396.254 319.246C396.17 319.82 396.086 320.393 396 320.985C394.767 321.012 394.767 321.012 393.509 321.041C389.777 321.13 386.045 321.232 382.312 321.334C381.019 321.363 379.725 321.392 378.393 321.422C377.145 321.458 375.898 321.494 374.613 321.531C372.893 321.575 372.893 321.575 371.138 321.62C367.976 321.92 365.778 322.349 363 323.783C360.568 326.818 360.613 330.118 360.375 333.812C360.3 334.904 360.225 335.996 360.148 337.121C360.075 338.37 360.075 338.37 360 339.643C361.116 339.638 362.231 339.633 363.381 339.628C367.505 339.611 371.629 339.601 375.753 339.592C377.541 339.587 379.329 339.581 381.116 339.573C383.681 339.561 386.245 339.556 388.809 339.552C389.613 339.547 390.417 339.542 391.245 339.537C393.164 339.537 395.082 339.585 397 339.643C399.838 342.291 398 347.094 398 350.838C380.84 350.838 363.68 350.838 346 350.838C346 321.055 346 321.055 354 313.521C359.918 310.028 365.384 309.672 372.27 309.698Z" fill="#FEFEFD"/>
<path d="M346 287.399C363.16 287.399 380.32 287.399 398 287.399C398 290.786 398 294.172 398 297.661C396.372 299.18 394.559 298.713 392.312 298.715C391.315 298.718 390.317 298.721 389.289 298.724C388.204 298.722 387.118 298.72 386 298.718C384.894 298.719 383.788 298.72 382.648 298.721C380.305 298.722 377.961 298.72 375.617 298.716C372.016 298.711 368.414 298.716 364.812 298.722C362.542 298.721 360.271 298.72 358 298.718C356.915 298.72 355.829 298.722 354.711 298.724C353.713 298.721 352.715 298.718 351.688 298.715C350.804 298.714 349.921 298.714 349.012 298.713C347 298.594 347 298.594 346 297.661C346 294.275 346 290.888 346 287.399Z" fill="#FEFEFE"/>
<path d="M265.202 283.389C267.829 285.36 269.629 286.986 271.139 289.803C271.241 293.029 270.515 295.333 269.202 298.316C266.622 300.608 264.793 301.933 261.171 302.193C257.56 301.942 255.638 301.438 252.764 299.307C249.906 295.787 249.728 293.408 250.202 288.987C253.935 282.936 258.084 281.786 265.202 283.389Z" fill="#39B44A"/>
</svg>
