<?xml version="1.0" standalone="no"?>
<!DOCTYPE svg PUBLIC "-//W3C//DTD SVG 20010904//EN"
 "http://www.w3.org/TR/2001/REC-SVG-20010904/DTD/svg10.dtd">
<svg version="1.0" xmlns="http://www.w3.org/2000/svg"
 width="577.000000pt" height="164.000000pt" viewBox="0 0 577.000000 164.000000"
 preserveAspectRatio="xMidYMid meet">

<g transform="translate(0.000000,164.000000) scale(0.100000,-0.100000)"
fill="#000000" stroke="none">
<path d="M0 820 l0 -820 2885 0 2885 0 0 820 0 820 -2885 0 -2885 0 0 -820z
m4830 300 c3 -107 7 -187 8 -178 3 26 53 80 89 94 43 19 145 18 191 -2 47 -19
88 -58 115 -109 20 -37 22 -54 22 -240 l0 -200 -65 0 -65 0 -5 187 c-5 180 -6
187 -29 212 -59 63 -191 51 -238 -21 -15 -22 -19 -58 -23 -203 l-5 -175 -65 0
-65 1 -3 404 c-1 223 0 411 3 418 3 9 23 12 67 10 l63 -3 5 -195z m-2187 39
c9 -12 17 -38 17 -59 0 -62 -60 -96 -118 -66 -33 17 -42 34 -42 75 0 71 97
105 143 50z m767 -49 l0 -50 -81 0 c-76 0 -82 -2 -110 -29 l-29 -29 0 -251 0
-251 -60 0 -61 0 4 258 c2 141 7 267 11 280 l8 22 -126 0 -126 0 0 50 0 50
285 0 285 0 0 -50z m560 0 l0 -50 -250 0 -250 0 0 50 0 50 250 0 250 0 0 -50z
m-3151 -91 c123 -61 153 -137 149 -375 l-3 -159 -65 0 -65 0 -6 55 c-3 30 -6
45 -7 34 -1 -12 -17 -36 -36 -52 -63 -55 -187 -63 -274 -18 -100 53 -154 207
-118 339 25 90 60 136 135 174 56 29 72 33 145 33 73 0 90 -4 145 -31z m586
12 c51 -23 92 -71 101 -118 l7 -36 18 48 c34 90 90 125 204 125 84 0 137 -21
182 -73 53 -60 64 -118 61 -318 l-3 -174 -60 -1 -60 -1 -5 176 c-5 191 -11
211 -66 247 -32 22 -107 21 -139 0 -54 -35 -60 -57 -65 -246 l-5 -175 -62 -1
-63 -2 0 157 c0 178 -8 219 -51 255 -25 21 -41 26 -85 26 -45 0 -59 -5 -86
-29 l-33 -29 -5 -189 -5 -188 -65 0 -65 0 0 190 c0 134 4 201 14 228 18 52 67
106 116 128 54 25 166 25 220 0z m1044 4 c103 -36 161 -121 161 -234 -1 -101
-36 -165 -105 -191 l-30 -12 40 -13 c83 -29 118 -103 97 -204 -24 -112 -109
-173 -247 -179 -96 -5 -148 8 -203 48 -49 35 -81 93 -89 161 l-6 49 64 0 64 0
15 -47 c11 -36 24 -52 50 -67 64 -37 182 -18 210 34 6 12 10 41 8 67 -4 65
-32 83 -143 94 -151 13 -238 76 -265 190 -32 132 35 261 156 304 52 19 171 19
223 0z m1991 0 c63 -22 116 -69 146 -130 35 -74 29 -85 -46 -85 -57 0 -61 2
-82 34 -32 48 -67 66 -131 66 -100 0 -162 -67 -154 -168 6 -83 60 -140 139
-149 59 -7 113 17 139 62 21 35 21 35 91 35 l70 0 -6 -27 c-12 -51 -61 -118
-109 -150 -151 -101 -367 -42 -437 119 -19 44 -22 65 -18 137 3 62 10 98 26
127 26 52 91 109 146 128 54 19 173 20 226 1z m-490 -164 l0 -50 -151 -3 -151
-3 -29 -33 c-27 -30 -29 -39 -29 -107 l0 -75 190 0 190 0 0 -50 0 -50 -250 0
-250 0 0 113 c0 137 16 200 62 244 54 52 94 62 266 62 l152 1 0 -49z"/>
<path d="M635 921 c-72 -18 -115 -77 -115 -157 0 -95 52 -155 142 -161 101 -8
168 54 168 154 0 30 -7 70 -16 89 -27 57 -109 92 -179 75z"/>
<path d="M2283 919 c-48 -14 -83 -62 -83 -114 0 -24 4 -55 10 -69 24 -65 152
-89 221 -43 66 44 62 169 -6 209 -38 22 -101 30 -142 17z"/>
</g>
</svg>
